# xmcd
#
# Track frame offsets:
#	150
#	23702
#	48513
#	83822
#	101479
#	138085
#	174117
#	230104
#	259701
#	302659
#
# Disc length: 4426 seconds
# Revision: 12
# Processed by: cddbd v1.5.2PL0 Copyright (c) Steve Scherf et al.
# Submitted via: dBpowerAMP V12.0
#
DISCID=7411480a
DTITLE=John Mayall - 70th Birthday Concert - CD1
DYEAR=2003
DGENRE=Blues
TTITLE0=Grits Ain't Groceries
TTITLE1=Jacksboro Highway
TTITLE2=Southside Story
TTITLE3=Kids Got The Blues
TTITLE4=Dirty Water
TTITLE5=Somebody's Acting Like A Child
TTITLE6=Blues For The Lost Days
TTITLE7=Walking On Sunset
TTITLE8=Oh, Pretty Woman
TTITLE9=No Big Hurry
EXTD=
EXTT0=
EXTT1=
EXTT2=
EXTT3=
EXTT4=
EXTT5=
EXTT6=
EXTT7=
EXTT8=
EXTT9=
PLAYORDER=
